<svg width="32" height="32" viewBox="0 0 32 32" fill="none" xmlns="http://www.w3.org/2000/svg">
  <defs>
    <linearGradient id="gradient" x1="0%" y1="0%" x2="100%" y2="100%">
      <stop offset="0%" style="stop-color:#2563EB"/>
      <stop offset="100%" style="stop-color:#9333EA"/>
    </linearGradient>
  </defs>
  <rect width="32" height="32" rx="6" fill="url(#gradient)"/>
  <!-- MessageSquare icon (main) - matching MeetingMindLogo -->
  <path d="M8 10C8 8.89543 8.89543 8 10 8H18C19.1046 8 20 8.89543 20 10V18C20 19.1046 19.1046 20 18 20H10C8.89543 20 8 19.1046 8 18V10Z" fill="white" opacity="0.95"/>
  <path d="M10 12H18M10 15H15" stroke="#2563EB" stroke-width="1.5" stroke-linecap="round"/>
  <!-- Brain icon overlay (small, bottom-right) - matching MeetingMindLogo -->
  <circle cx="22" cy="10" r="3.5" fill="#1E40AF" opacity="0.9"/>
  <path d="M21 9.5C21 9.5 21.3 8.8 22 8.8C22.7 8.8 23 9.5 23 9.5M21 10.5C21 10.5 21.3 11.2 22 11.2C22.7 11.2 23 10.5 23 10.5" stroke="white" stroke-width="0.8" stroke-linecap="round"/>
  <circle cx="21.3" cy="9.5" r="0.4" fill="white"/>
  <circle cx="22.7" cy="9.5" r="0.4" fill="white"/>
</svg>
